<svg xmlns="http://www.w3.org/2000/svg" viewBox="0 0 180 180" width="180" height="180">
  <defs>
    <clipPath id="clip-earth">
      <circle cx="90" cy="90" r="90"/>
    </clipPath>
  </defs>
  <g id="earth">
    <circle cx="90" cy="90" r="90" fill="#4775ff"/>
    <g clip-path="url(#clip-earth)">
      <g id="cont1" transform="rotate(-12 54 54)">
        <path d="M61.92 26A28.08 26.88 0 0 1 90 52.88A39.6 29.12 0 0 1 50.4 82A32.4 25.2 0 0 1 18 56.8A43.92 30.8 0 0 1 61.92 26Z" fill="#62c370"/>
      </g>
      <g id="cont2" transform="rotate(18 141 102)">
        <path d="M138.1 78A31.9 20.16 0 0 1 170 98.16A34.8 27.84 0 0 1 135.2 126A23.2 24 0 0 1 112 102A26.1 24 0 0 1 138.1 78Z" fill="#62c370"/>
      </g>
      <path id="cont3" d="M71.1 128A18.9 15 0 0 1 90 143A20.16 15 0 0 1 69.84 158A21.84 12 0 0 1 48 146A23.1 18 0 0 1 71.1 128Z" fill="#62c370"/>
      <rect id="cloud1" x="-16" y="60" width="86" height="13" rx="6.5" fill="#ffffff" fill-opacity="0.5"/>
      <rect id="cloud2" x="88" y="108" width="64" height="11" rx="5.5" fill="#ffffff" fill-opacity="0.5"/>
      <rect id="cloud1-2" x="164" y="60" width="86" height="13" rx="6.5" fill="#ffffff" fill-opacity="0.5"/>
      <rect id="earthCap" x="52" y="-8" width="76" height="26" rx="13" fill="#ffffff" fill-opacity="0.85"/>
      <path id="shade" d="M131.13 9.95A90 90 0 1 1 28.87 156.05A90 90 0 0 0 131.13 9.95Z" fill="#000000" fill-opacity="0.18"/>
    </g>
  </g>
</svg>
